<?xml version="1.0" encoding="UTF-8" standalone="no"?>
<svg
   width="16"
   height="16"
   fill="none"
   version="1.1"
   id="svg4"
   xmlns="http://www.w3.org/2000/svg"
   xmlns:svg="http://www.w3.org/2000/svg">
  <g
     clip-path="url(#a)"
     id="g4"
     transform="scale(0.25)">
    <rect
       width="64"
       height="64"
       x="64"
       y="64"
       fill="#9333ea"
       rx="16"
       transform="rotate(180,64,64)"
       id="rect1" />
    <path
       fill="#ffffff"
       fill-rule="evenodd"
       d="m 14.999,34.961 v -17.96 h 4 v 17.96 c 0,3.172 1.492,6.152 4.015,8.036 L 28.377,47 a 14.026,14.026 0 0 1 5.622,11.24 V 64 h -4 v -5.76 c 0,-3.17 -1.492,-6.15 -4.015,-8.035 l -5.363,-4.004 a 14.027,14.027 0 0 1 -5.622,-11.24 z"
       clip-rule="evenodd"
       id="path1" />
    <path
       fill="#ffffff"
       fill-rule="evenodd"
       d="m 48.999,34.961 v -17.96 h -4 v 17.96 c 0,3.172 -1.492,6.152 -4.015,8.036 L 35.62,47 A 14.027,14.027 0 0 0 29.998,58.24 V 64 h 4 v -5.76 c 0,-3.17 1.492,-6.15 4.015,-8.035 l 5.363,-4.004 A 14.027,14.027 0 0 0 49,34.962 Z"
       clip-rule="evenodd"
       id="path2" />
    <path
       fill="#ffffff"
       fill-rule="evenodd"
       d="M 29.799,64.001 V 27.887 h 4.4 V 64 h -4.4 z"
       clip-rule="evenodd"
       id="path3" />
    <path
       fill="#ffffff"
       d="m 40.999,18.001 a 6,6 0 1 1 12,0 6,6 0 0 1 -12,0 z m -29.985,0 a 6,6 0 1 1 12,0 6,6 0 0 1 -12,0 z m 15.985,12 a 5,5 0 1 1 10,0 5,5 0 0 1 -10,0 z"
       id="path4" />
  </g>
  <defs
     id="defs4">
    <clipPath
       id="a">
      <rect
         width="64"
         height="64"
         x="64"
         y="64"
         fill="#ffffff"
         rx="16"
         transform="rotate(180,64,64)"
         id="rect4" />
    </clipPath>
  </defs>
</svg>
