<?xml version="1.0" encoding="UTF-8" standalone="no"?>
<svg
	width="16"
	height="16"
	viewBox="0 0 16 16"
	fill="none"
	version="1.1"
	id="svg1"
	xmlns="http://www.w3.org/2000/svg"
	xmlns:svg="http://www.w3.org/2000/svg"
>
	<defs
		id="defs1" />
	<path
		style="fill:#8d45dd;fill-opacity:1;stroke:none;stroke-width:1.61917;stroke-dasharray:none;stroke-opacity:1"
		d="m 14.470815,5.1834984 c -0.476023,0.7909752 -1.44632,1.3290218 -1.536005,1.3750129 -0.18162,0.096568 -0.248319,0.2368284 -0.236828,0.4460756 0.01157,0.2092361 -0.03911,1.2462107 -0.671389,1.7038686 C 11.702335,8.9429178 10.39403,9.2464457 9.7938489,9.3476217 9.4858145,9.400463 9.4144954,9.4947662 9.2443665,9.5959422 9.0144109,9.7384674 8.1981305,10.86977 8.0602246,11.120455 c 0.018366,-0.0024 2.5728884,-0.795663 2.6879244,-0.814028 0.303527,-0.04597 0.533369,0.04146 0.682879,0.262179 0.142527,0.211478 0.282798,0.425323 0.42307,0.639167 0.0506,0.07593 0.09893,0.154129 0.147146,0.232211 l 0.0506,0.08056 c 0.01835,0.02986 0.04373,0.06433 0.0552,0.110304 0.0093,0.03222 0.02986,0.140272 -0.03222,0.204717 -0.05745,0.05971 -0.156271,0.05971 -0.209224,0.04597 -0.0506,-0.01381 -0.126413,-0.04372 -0.188495,-0.09428 l -0.08506,-0.07132 c -0.0667,-0.05745 -0.193225,-0.08505 -0.292035,-0.08044 -0.11504,0.0045 -0.266799,-0.03222 -0.340372,-0.07819 -0.142524,-0.09194 -0.179367,-0.321893 -0.179367,-0.324145 -0.01836,-0.07594 -0.07358,-0.09656 -0.12416,-0.09656 -0.09195,-0.0024 -0.163256,0.02524 -0.236828,0.04597 -0.335638,0.101182 -0.6690232,0.204607 -1.0047743,0.310401 l -0.4805439,0.149382 c -0.2368285,0.07358 -0.4736569,0.147145 -0.7082318,0.225336 -0.064333,0.02074 -0.1264136,0.05296 -0.1931132,0.08744 -0.027604,0.01381 -0.055207,0.02759 -0.082811,0.04136 -0.027604,0.01381 -0.057461,0.02996 -0.085064,0.04597 -0.062079,0.03448 -0.1287796,0.07132 -0.2023518,0.09205 -0.2391269,0.07122 -0.448374,-0.03222 -0.5472404,-0.271303 -0.064391,-0.15413 -0.00689,-0.459911 0.027592,-0.549594 0.2161298,-0.561132 0.919731,-1.6187481 0.919731,-1.6257336 -0.011492,-0.00451 -0.7794719,0.3035275 -0.9059418,0.4000846 -0.3471981,0.264432 -1.1611689,0.889853 -1.1726721,0.949679 -0.052876,0.278178 -0.2253364,0.487515 -0.4897571,0.590946 -0.1908487,0.07357 -0.305815,0.225334 -0.4184832,0.372479 0,0 -2.0395182,2.809831 -2.1774802,2.961596 -0.041393,0.04597 -0.42308,0.446052 -0.524256,0.632293 -0.022997,0.04597 -0.1103691,0.229956 -0.133354,0.275926 -0.018396,0.03673 -0.05979,0.135651 -0.2161401,0.128777 -0.1563606,-0.0068 -0.1609575,-0.225334 -0.1678528,-0.319638 -0.0161,-0.232209 0.034488,-0.459912 0.1563496,-0.698993 0.011506,-0.02298 0.1494655,-0.23221 0.098876,-0.400085 -0.04599,-0.147145 -0.089672,-0.374848 -0.020698,-0.489767 0.1080722,-0.181622 0.2989197,-0.188496 0.5541468,-0.229956 0.1770467,-0.02986 0.3058151,-0.117289 0.4299754,-0.298911 0.2621222,-0.381718 1.2485541,-1.781959 1.4715806,-2.106215 0.059793,-0.08506 0.105772,-0.195367 0.12647,-0.303529 0.064378,-0.326511 0.2621224,-0.554103 0.6070221,-0.694373 0.073583,-0.02986 1.4462978,-1.17727 1.4462978,-1.3244145 0,-0.1057951 -0.1494541,-0.163256 -0.2644318,-0.1954789 C 6.4460394,8.9337864 5.5837796,8.7107089 5.1905905,8.5313412 4.9767576,8.4347847 4.8158,8.3497201 4.6249515,8.2117017 4.3651277,8.020842 3.8454798,8.1128918 3.7695977,8.124384 3.4017025,8.1772252 3.1280768,8.3428475 2.8176649,8.5520722 2.76248,8.591168 2.4796607,8.6923441 2.3371016,8.6117863 2.0588789,8.4531496 1.4472489,8.1680992 1.2219126,7.8254756 1.1184495,7.6668388 1.1322401,7.4092683 1.2058236,7.1241504 1.442652,6.4619436 1.7921596,6.1653221 2.4382776,5.9859771 2.8981436,5.827318 3.8247826,5.7928302 4.2708582,5.7583423 4.3007484,5.7491373 5.2894678,5.7261414 5.9838642,5.3697501 6.4460399,5.1329106 7.818777,4.2200734 9.7938489,4.2821537 10.591764,4.3074486 12.100164,5.0869306 12.681869,5.1099261 13.275068,5.1352087 13.571723,5.068533 13.914347,4.7144387 14.010906,4.6132622 14.422481,3.7257082 14.033888,3.2405482 13.888997,3.0612031 13.7396,2.9002453 13.567103,2.7530896 13.334894,2.5553457 13.093447,2.3667957 12.884222,2.1437579 12.422059,1.654001 12.279532,0.98488749 12.497884,0.46294129 c 0.140271,-0.36559684 0.434671,-0.52425606 0.859994,-0.44147883 0.298911,0.0574831 0.517373,0.32651221 0.731217,0.46907119 0.119542,0.0804684 0.31964,0.12645863 0.450673,0.15864784 0.165509,0.0390962 0.289669,0.1655547 0.282798,0.25063023 -0.0069,0.0850755 -0.225338,0.15865928 -0.434563,0.14255898 -0.24832,-0.016089 -0.673754,-0.018386 -0.928948,0.066688 -0.170129,0.062079 -0.246066,0.250619 -0.195478,0.4368707 0.04145,0.1517526 0.365607,0.42308 0.487512,0.5242559 0.243703,0.2000424 0.503516,0.3816858 0.705868,0.6323161 0.227703,0.2851177 0.347242,0.6093316 0.383973,0.9680217 0.0552,0.54955 -0.08967,1.0439152 -0.370115,1.5129753 z"
		id="path2" />
</svg>